<svg width="39" height="27" viewBox="0 0 39 27" fill="none" xmlns="http://www.w3.org/2000/svg">
<path d="M30.4527 8.68018H16.3533C16.1614 8.68018 16.0176 8.82405 16.0176 9.01588C16.0176 9.20771 16.1614 9.35158 16.3533 9.35158H30.4527C30.6446 9.35158 30.7884 9.20771 30.7884 9.01588C30.7884 8.82405 30.6446 8.68018 30.4527 8.68018Z" fill="#EC1E24"/>
<path d="M30.4527 10.9822H16.3533C16.1614 10.9822 16.0176 11.1261 16.0176 11.3179C16.0176 11.5097 16.1614 11.6536 16.3533 11.6536H30.4527C30.6446 11.6536 30.7884 11.5097 30.7884 11.3179C30.7884 11.1261 30.6446 10.9822 30.4527 10.9822Z" fill="#EC1E24"/>
<path d="M30.4527 13.2363H16.3533C16.1614 13.2363 16.0176 13.3802 16.0176 13.572C16.0176 13.7639 16.1614 13.9077 16.3533 13.9077H30.4527C30.6446 13.9077 30.7884 13.7639 30.7884 13.572C30.7884 13.3802 30.6446 13.2363 30.4527 13.2363Z" fill="#EC1E24"/>
<path d="M30.4527 15.5386H16.3533C16.1614 15.5386 16.0176 15.6824 16.0176 15.8743C16.0176 16.0661 16.1614 16.21 16.3533 16.21H30.4527C30.6446 16.21 30.7884 16.0661 30.7884 15.8743C30.7884 15.6824 30.6446 15.5386 30.4527 15.5386Z" fill="#EC1E24"/>
<path d="M23.403 17.8401H16.3533C16.1614 17.8401 16.0176 17.984 16.0176 18.1758C16.0176 18.3676 16.1614 18.5115 16.3533 18.5115H23.403C23.5948 18.5115 23.7387 18.3676 23.7387 18.1758C23.7387 17.984 23.5948 17.8401 23.403 17.8401Z" fill="#EC1E24"/>
<path d="M7.00215 13.3803C8.297 13.3803 9.3041 12.3252 9.3041 11.0783C9.3041 9.78347 8.24904 8.77637 7.00215 8.77637C5.75526 8.77637 4.7002 9.83143 4.7002 11.0783C4.7002 12.3252 5.7073 13.3803 7.00215 13.3803ZM7.00215 9.39981C7.91334 9.39981 8.68066 10.1671 8.68066 11.0783C8.68066 11.9895 7.91334 12.7568 7.00215 12.7568C6.09096 12.7568 5.32364 11.9895 5.32364 11.0783C5.32364 10.1671 6.09096 9.39981 7.00215 9.39981Z" fill="#EC1E24"/>
<path d="M11.3658 6.76221H2.58961C2.39778 6.76221 2.25391 6.90608 2.25391 7.09791V20.0944C2.25391 20.2862 2.39778 20.4301 2.58961 20.4301H11.3658C11.5576 20.4301 11.7015 20.2862 11.7015 20.0944V7.04995C11.7015 6.90608 11.5576 6.76221 11.3658 6.76221ZM11.0301 7.38565V15.97C10.1189 14.7711 8.72815 14.0997 6.95373 14.0997C5.17931 14.0997 3.78854 14.7711 2.87735 15.97V7.38565H11.0301ZM2.92531 19.7587V17.169C3.64467 15.5864 5.08339 14.7231 7.00169 14.7231C8.91998 14.7231 10.3587 15.5864 11.0781 17.169V19.7587H2.92531Z" fill="#EC1E24"/>
<path d="M38.27 16.6892L34.3854 2.01421C34.1936 1.34281 33.762 0.767318 33.1865 0.383659C32.5631 1.42924e-07 31.8437 -0.0959148 31.1723 0.0959147L19.0391 3.2611H2.63766C1.15098 3.2611 0 4.46004 0 5.89876V21.0533C0 22.492 1.19893 23.6909 2.63766 23.6909H5.99467L6.33037 24.9858C6.5222 25.6572 6.90586 26.2327 7.52931 26.6163C7.96092 26.8561 8.39254 27 8.87211 27C9.1119 27 9.35169 26.952 9.54352 26.9041L21.6767 23.6909H30.357C31.8437 23.6909 32.9947 22.492 32.9947 21.0533V20.7176L36.3517 19.8064C37.7904 19.5666 38.6536 18.0799 38.27 16.6892ZM9.39964 26.3766C8.87211 26.5204 8.34458 26.4245 7.86501 26.1847C7.38544 25.897 7.09769 25.4654 6.95382 24.9858L6.66607 23.8348H19.1829L9.39964 26.3766ZM32.4192 21.1492C32.4192 22.2522 31.508 23.1634 30.405 23.1634H2.63766C1.53464 23.1634 0.623446 22.2522 0.623446 21.1492V5.99467C0.623446 4.89165 1.53464 3.98046 2.63766 3.98046H30.357C31.46 3.98046 32.3712 4.89165 32.3712 5.99467V21.1492H32.4192ZM36.2558 19.3268L33.0906 20.1901V5.99467C33.0906 4.55595 31.8917 3.35702 30.4529 3.35702H21.5808L31.3162 0.767318C31.8437 0.623446 32.3712 0.719361 32.8508 0.959148C33.3304 1.24689 33.6181 1.67851 33.762 2.15808L37.6465 16.833C37.9343 17.9361 37.3108 19.0391 36.2558 19.3268Z" fill="#EC1E24"/>
</svg>
