<svg width="18" height="18" viewBox="0 0 18 18" fill="none" xmlns="http://www.w3.org/2000/svg">
<path d="M16.6428 6.76509C16.4438 5.51973 15.3594 4.61623 14.0646 4.61623H13.3853V4.38515C13.3853 1.96715 11.4181 0 9.00011 0C6.58209 0 4.61496 1.96713 4.61496 4.38515V4.61623H3.9356C2.6409 4.61623 1.55659 5.5206 1.35741 6.76509L0.0307028 15.0732C-0.0835331 15.7916 0.12417 16.5246 0.601018 17.0836C1.09864 17.6669 1.82994 18.001 2.60882 18.001H15.3912C16.1701 18.001 16.9014 17.6669 17.399 17.0836C17.8758 16.5246 18.0835 15.7916 17.9693 15.0732L16.6428 6.76509ZM6.00063 4.3852C6.00063 2.73136 7.34637 1.38474 9.00109 1.38474C10.6549 1.38474 12.0015 2.73048 12.0015 4.3852V4.61627H6.00151V4.3852H6.00063ZM16.3459 16.1845C16.1123 16.4597 15.7644 16.6164 15.3914 16.6164H2.609C2.23599 16.6164 1.88809 16.4597 1.65442 16.1845C1.4372 15.9301 1.34634 15.6134 1.39827 15.2914L2.72498 6.98328C2.81412 6.42335 3.33511 6.00101 3.93571 6.00101H4.61507V8.07805C4.61507 8.46058 4.92489 8.77039 5.30742 8.77039C5.68995 8.77039 5.99976 8.46058 5.99976 8.07805V6.00101H11.9998V8.07805C11.9998 8.46058 12.3096 8.77039 12.6921 8.77039C13.0747 8.77039 13.3845 8.46058 13.3845 8.07805V6.00101H14.0638C14.6645 6.00101 15.1854 6.42421 15.2746 6.98328L16.6013 15.2914C16.6524 15.6134 16.5615 15.931 16.3451 16.1845H16.3459Z" fill="#EC1E24"/>
</svg>
