<svg width="30" height="30" viewBox="0 0 30 30" fill="none" xmlns="http://www.w3.org/2000/svg">
<path fill-rule="evenodd" clip-rule="evenodd" d="M21.0295 17.652V15.5359H25.8576C26.096 16.4386 26.917 17.1056 27.8946 17.1056C29.0571 17.1056 30 16.1614 30 15.0002C30 13.839 29.0571 12.8948 27.8946 12.8948C26.917 12.8948 26.096 13.5618 25.8576 14.4645H21.0295V12.3591C21.1286 12.319 21.217 12.2493 21.2772 12.1582L22.6888 10.0422H22.7197C22.9567 10.9448 23.779 11.6118 24.7554 11.6118C25.9179 11.6118 26.8607 10.6689 26.8607 9.50644C26.8607 8.34394 25.9179 7.40108 24.7554 7.40108C23.779 7.40108 22.9567 8.06804 22.7197 8.97072H22.4009C22.2228 8.97072 22.0554 9.06045 21.9562 9.20911L20.5862 11.2636L18.675 10.16V9.45553L20.7911 8.04391C20.9397 7.9448 21.0295 7.77739 21.0295 7.59926V7.28051C21.9321 7.04345 22.5991 6.22114 22.5991 5.24479C22.5991 4.08229 21.6562 3.13943 20.4938 3.13943C19.3313 3.13943 18.3884 4.08229 18.3884 5.24479C18.3884 6.22114 19.0554 7.04345 19.958 7.28051V7.31131L17.842 8.72293C17.692 8.82203 17.6036 8.98944 17.6036 9.16891V9.54123L15.5357 8.34791V4.14241C16.4384 3.90402 17.1054 3.08305 17.1054 2.10535C17.1054 0.94286 16.1612 0 15 0C13.8388 0 12.8946 0.94286 12.8946 2.10535C12.8946 3.08305 13.5616 3.90402 14.4643 4.14241V8.34791L12.3964 9.54123V9.16891C12.3964 8.98945 12.308 8.82205 12.158 8.72293L10.042 7.31131V7.28051C10.9446 7.04345 11.6116 6.22114 11.6116 5.24479C11.6116 4.08229 10.6687 3.13943 9.50624 3.13943C8.34375 3.13943 7.40089 4.08229 7.40089 5.24479C7.40089 6.22114 8.06785 7.04345 8.97053 7.28051V7.59926C8.97053 7.77738 9.06026 7.94479 9.20892 8.04391L11.325 9.45553V10.16L9.41385 11.2636L8.04375 9.20911C7.94465 9.06045 7.77724 8.97072 7.5991 8.97072H7.28035C7.04329 8.06804 6.22099 7.40108 5.24463 7.40108C4.08214 7.40108 3.13928 8.34394 3.13928 9.50644C3.13928 10.6689 4.08214 11.6118 5.24463 11.6118C6.22099 11.6118 7.0433 10.9448 7.28035 10.0422H7.31115L8.72277 12.1582C8.78304 12.2493 8.87143 12.319 8.97054 12.3591V14.4645H4.14241C3.90402 13.5618 3.08305 12.8948 2.10535 12.8948C0.94286 12.8948 0 13.839 0 15.0002C0 16.1614 0.94286 17.1056 2.10535 17.1056C3.08305 17.1056 3.90402 16.4386 4.14241 15.5359H8.97054V17.648C8.77366 17.7725 8.74554 17.8074 8.7134 17.8556L7.31117 19.9583H7.28037C7.04331 19.0556 6.22101 18.3886 5.24465 18.3886C4.08216 18.3886 3.1393 19.3315 3.1393 20.494C3.1393 21.6565 4.08216 22.5993 5.24465 22.5993C6.22101 22.5993 7.04332 21.9324 7.28037 21.0297H7.59912C7.77725 21.0297 7.94465 20.94 8.04377 20.7913L9.41387 18.7368L11.325 19.8404V20.5449L9.20894 21.9565C9.06028 22.0556 8.97055 22.223 8.97055 22.4012V22.7199C8.06787 22.957 7.40091 23.7793 7.40091 24.7556C7.40091 25.9181 8.34377 26.861 9.50627 26.861C10.6688 26.861 11.6116 25.9181 11.6116 24.7556C11.6116 23.7793 10.9447 22.957 10.042 22.7199V22.6891L12.1581 21.2775C12.3081 21.1784 12.3965 21.011 12.3965 20.8315V20.4592L14.4643 21.6525V25.858C13.5616 26.0964 12.8947 26.9174 12.8947 27.8951C12.8947 29.0576 13.8389 30.0004 15 30.0004C16.1612 30.0004 17.1054 29.0576 17.1054 27.8951C17.1054 26.9174 16.4384 26.0964 15.5357 25.858V21.6525L17.6036 20.4592V20.8315C17.6036 21.011 17.692 21.1784 17.842 21.2775L19.9581 22.6891V22.7199C19.0554 22.957 18.3884 23.7793 18.3884 24.7556C18.3884 25.9181 19.3313 26.861 20.4938 26.861C21.6563 26.861 22.5991 25.9181 22.5991 24.7556C22.5991 23.7793 21.9322 22.957 21.0295 22.7199V22.4012C21.0295 22.223 20.9398 22.0556 20.7911 21.9565L18.675 20.5449V19.8404L20.5862 18.7368L21.9563 20.7913C22.0554 20.94 22.2228 21.0297 22.4009 21.0297H22.7197C22.9567 21.9324 23.779 22.5993 24.7554 22.5993C25.9179 22.5993 26.8607 21.6565 26.8607 20.494C26.8607 19.3315 25.9179 18.3886 24.7554 18.3886C23.779 18.3886 22.9567 19.0556 22.7197 19.9583H22.6889L21.2773 17.8422C21.2773 17.8422 21.2156 17.7725 21.0295 17.652ZM15 28.9289C14.4294 28.9289 13.966 28.4655 13.966 27.895C13.966 27.3245 14.4294 26.8611 15 26.8611C15.5705 26.8611 16.0339 27.3245 16.0339 27.895C16.0339 28.4655 15.5705 28.9289 15 28.9289ZM9.50635 25.7897C8.9358 25.7897 8.47242 25.3263 8.47242 24.7557C8.47242 24.1852 8.93583 23.7218 9.50635 23.7218C10.0769 23.7218 10.5403 24.1852 10.5403 24.7557C10.5403 25.3263 10.0769 25.7897 9.50635 25.7897ZM20.4939 25.7897C19.9234 25.7897 19.46 25.3263 19.46 24.7557C19.46 24.1852 19.9234 23.7218 20.4939 23.7218C21.0645 23.7218 21.5278 24.1852 21.5278 24.7557C21.5278 25.3263 21.0644 25.7897 20.4939 25.7897ZM4.2109 20.4942C4.2109 19.9237 4.67431 19.4603 5.24483 19.4603C5.81534 19.4603 6.27875 19.9237 6.27875 20.4942C6.27875 21.0648 5.81534 21.5282 5.24483 21.5282C4.67431 21.5282 4.2109 21.0647 4.2109 20.4942ZM25.7897 20.4942C25.7897 21.0648 25.3263 21.5282 24.7558 21.5282C24.1853 21.5282 23.7219 21.0647 23.7219 20.4942C23.7219 19.9237 24.1853 19.4603 24.7558 19.4603C25.3263 19.4603 25.7897 19.9237 25.7897 20.4942ZM15.0003 9.27626L19.9584 12.1383V17.8623C19.9584 17.8637 15.0003 20.7244 15.0003 20.7244L10.0422 17.8623V12.1383L15.0003 9.27626ZM1.0717 15.0003C1.0717 14.4297 1.5351 13.9663 2.10562 13.9663C2.67613 13.9663 3.13954 14.4298 3.13954 15.0003C3.13954 15.5708 2.67613 16.0342 2.10562 16.0342C1.5351 16.0342 1.0717 15.5708 1.0717 15.0003ZM28.9289 15.0003C28.9289 15.5708 28.4655 16.0342 27.895 16.0342C27.3245 16.0342 26.8611 15.5708 26.8611 15.0003C26.8611 14.4298 27.3245 13.9663 27.895 13.9663C28.4655 13.9663 28.9289 14.4298 28.9289 15.0003ZM4.2109 9.50666C4.2109 8.93611 4.67431 8.47273 5.24483 8.47273C5.81534 8.47273 6.27875 8.93614 6.27875 9.50666C6.27875 10.0772 5.81534 10.5406 5.24483 10.5406C4.67431 10.5406 4.2109 10.0772 4.2109 9.50666ZM25.7897 9.50666C25.7897 10.0772 25.3263 10.5406 24.7558 10.5406C24.1853 10.5406 23.7219 10.0772 23.7219 9.50666C23.7219 8.93611 24.1853 8.47273 24.7558 8.47273C25.3263 8.47273 25.7897 8.93614 25.7897 9.50666ZM9.50669 4.21121C10.0772 4.21121 10.5406 4.67462 10.5406 5.24514C10.5406 5.81565 10.0772 6.27906 9.50669 6.27906C8.93614 6.27906 8.47277 5.81565 8.47277 5.24514C8.47277 4.67462 8.93617 4.21121 9.50669 4.21121ZM20.4943 4.21121C21.0648 4.21121 21.5282 4.67462 21.5282 5.24514C21.5282 5.81565 21.0648 6.27906 20.4943 6.27906C19.9237 6.27906 19.4603 5.81565 19.4603 5.24514C19.4603 4.67462 19.9237 4.21121 20.4943 4.21121ZM15.0006 1.07194C15.5712 1.07194 16.0346 1.53534 16.0346 2.10586C16.0346 2.67638 15.5712 3.13978 15.0006 3.13978C14.4301 3.13978 13.9667 2.67638 13.9667 2.10586C13.9667 1.53534 14.4301 1.07194 15.0006 1.07194Z" fill="#253D4E"/>
<path fill-rule="evenodd" clip-rule="evenodd" d="M14.7322 11.0495L18.2866 13.1027V15.0005C18.2866 15.2965 18.5277 15.5362 18.8237 15.5362C19.1183 15.5362 19.3594 15.2965 19.3594 15.0005V12.7933C19.3594 12.6018 19.2562 12.425 19.0915 12.3299L15.268 10.1228C15.0122 9.97411 14.684 10.0625 14.5367 10.3183C14.388 10.5741 14.4764 10.9022 14.7322 11.0495Z" fill="#253D4E"/>
</svg>
