<svg width="30" height="22" viewBox="0 0 30 22" fill="none" xmlns="http://www.w3.org/2000/svg">
<path d="M29.7808 9.21351L15.2496 0.0719261C15.1748 0.0249316 15.0883 0 15 0C14.9117 0 14.8252 0.0249316 14.7504 0.0719261C14.7504 0.0719261 0.219155 9.21351 0.214477 9.21735C0.11523 9.28343 0.044027 9.38398 0.0146484 9.49954C0.0051313 9.5357 0.000209701 9.57292 7.56088e-10 9.61031L7.56088e-10 11.9543C-4.50134e-06 12.0336 0.0200967 12.1116 0.0584238 12.1809C0.0967509 12.2503 0.152052 12.3089 0.219155 12.3511C0.219155 12.3511 14.749 21.4918 14.7504 21.4927C14.8257 21.5383 14.912 21.5625 15 21.5625C15.088 21.5625 15.1743 21.5383 15.2496 21.4927L29.7808 12.3511C29.8479 12.3089 29.9032 12.2503 29.9416 12.181C29.9799 12.1116 30 12.0336 30 11.9543V9.61031C29.9999 9.57373 29.9954 9.5373 29.9864 9.50183C29.9569 9.38315 29.8834 9.28011 29.7808 9.21351ZM23.4375 6.33059L28.6509 9.61031L26.3687 11.046H23.4375V6.33059ZM9.14062 11.046V8.55551H16.875V11.046H9.14062ZM13.5547 11.9836V17.2888L9.14062 14.5119V11.9836H13.5547ZM14.4922 11.9836H20.1562V14.1541H14.4922V11.9836ZM17.8125 11.046V8.55551H22.5V11.046H17.8125ZM21.0938 11.9836H24.8783L21.0938 14.3645V11.9836ZM12.6562 2.49703L15 1.02257L20.4383 4.44379H12.6562V2.49703ZM12.6562 5.38139H21.9287L22.5 5.74082V7.61793H12.6562V5.38139ZM7.73438 5.59338L11.7188 3.08679V7.61792H7.73438V5.59338ZM6.79688 6.18315V7.61793H4.51621L6.79688 6.18315ZM3.02582 8.55551H8.20312V9.71285H1.51215L1.34914 9.6103L3.02582 8.55551ZM8.20312 10.6505V13.9222L3.00253 10.6505H8.20312ZM14.5312 19.15V20.2472L0.9375 11.6954V10.459L14.5508 19.0232C14.5385 19.0643 14.5319 19.107 14.5312 19.15ZM15 18.1981L14.4922 17.8786V15.0917H19.9378L15 18.1981ZM29.0625 11.6954L15.4688 20.2472V19.15C15.4681 19.107 15.4615 19.0643 15.4492 19.0231L29.0625 10.459V11.6954Z" fill="#253D4E"/>
</svg>
