<svg width="25" height="25" viewBox="0 0 25 25" fill="none" xmlns="http://www.w3.org/2000/svg">
<path d="M24.4565 0H0.543481C0.243744 0 0 0.243744 0 0.543481V24.4565C0 24.7561 0.243744 25 0.543481 25H24.4565C24.7561 25 25 24.7561 25 24.4565V0.543481C25 0.243744 24.7561 0 24.4565 0ZM21.9662 0.543481L21.2203 1.37064L20.4744 0.543481H21.9662ZM13.244 0.543481L12.4982 1.37064L11.7525 0.543481H13.244ZM11.0208 0.543481L12.2964 1.95831C12.3994 2.07269 12.5971 2.07269 12.7 1.95831L13.9756 0.543481H16.0656L12.4982 4.50017L8.93098 0.543481H11.0208ZM4.52399 0.543481L3.77863 1.37051L3.03303 0.543481H4.52399ZM0.543481 0.543481H2.30132L3.57681 1.95831C3.67978 2.07269 3.87748 2.07269 3.98044 1.95831L5.25555 0.543481H7.34448L3.77863 4.50004L0.543481 0.911552V0.543481ZM0.543481 24.4568V23.6296L1.28923 24.4568H0.543481ZM7.86761 24.4567L6.26727 24.4567L7.86761 22.6809V24.4567ZM7.86761 21.8692L5.53572 24.4567L2.021 24.4568L0.543481 22.8178V20.5L3.57681 23.8647C3.67978 23.9789 3.87748 23.9789 3.98044 23.8647L7.86761 19.5514V21.8692ZM7.86761 18.7397L3.77863 23.2769L0.543481 19.6883V17.3705L3.57681 20.7352C3.67978 20.8493 3.87748 20.8493 3.98044 20.7352L7.86761 16.4221V18.7397ZM7.86761 15.6104L3.77863 20.1474L0.543481 16.5589V14.2412L3.57681 17.606C3.67978 17.7201 3.87748 17.7201 3.98044 17.606L7.86761 13.2927V15.6104ZM7.86761 12.481L3.77863 17.0182L0.543481 13.4296V11.1116L3.57681 14.4763C3.67978 14.5907 3.87748 14.5907 3.98044 14.4763L7.86761 10.1632V12.481ZM7.86761 9.35148L3.77863 13.8885L0.543481 10.3V7.98205L3.57681 11.3468C3.67978 11.4611 3.87748 11.4611 3.98044 11.3468L7.86761 7.03368V9.35148ZM7.86761 6.22195L3.77863 10.759L0.543481 7.17048V4.85262L3.57681 8.21723C3.67978 8.33161 3.87748 8.33161 3.98044 8.21723L7.86761 3.90426V6.22195ZM7.86761 3.09254L3.77863 7.62944L0.543481 4.04106V1.72312L3.57681 5.08784C3.67978 5.20221 3.87748 5.20221 3.98044 5.08784L7.86761 0.774753V3.09254ZM8.41109 24.4567V22.6847L10.0087 24.4567L8.41109 24.4567ZM16.5889 24.4566L14.9879 24.4566L16.5889 22.6808V24.4566ZM16.5889 21.8692L14.2561 24.4566L10.7404 24.4567L8.41109 21.873V19.5551L12.2964 23.8647C12.3994 23.9789 12.5971 23.9789 12.7 23.8647L16.5889 19.5513V21.8692ZM16.5889 18.7396L12.4982 23.2769L8.41109 18.7435V16.4258L12.2964 20.7352C12.3994 20.8493 12.5971 20.8493 12.7 20.7352L16.5889 16.4219V18.7396ZM16.5889 15.6104L12.4982 20.1474L8.41109 15.6142V13.2964L12.2964 17.606C12.3994 17.7201 12.5971 17.7201 12.7 17.606L16.5889 13.2925V15.6104ZM16.5889 12.481L12.4982 17.0182L8.41109 12.4848V10.1669L12.2964 14.4763C12.3994 14.5907 12.5971 14.5907 12.7 14.4763L16.5889 10.163V12.481ZM16.5889 9.35145L12.4982 13.8886L8.41109 9.35528V7.03739L12.2964 11.3468C12.3994 11.4611 12.5971 11.4611 12.7 11.3468L16.5889 7.03343V9.35145ZM16.5889 6.22192L12.4982 10.7591L8.41109 6.22575V3.90798L12.2964 8.21723C12.3994 8.33161 12.5971 8.33161 12.7 8.21723L16.5889 3.90402V6.22192ZM16.5889 3.09253L12.4982 7.62957L8.41109 3.09636V0.778468L12.2964 5.08784C12.3994 5.20221 12.5971 5.20221 12.7 5.08784L16.5889 0.774504V3.09253ZM17.1324 24.4566V22.6846L18.7302 24.4566L17.1324 24.4566ZM24.4565 24.4565H23.7104L24.4565 23.6291V24.4565ZM24.4565 22.8176L22.9786 24.4565L19.4621 24.4566L17.1324 21.873V19.5551L21.0185 23.8647C21.07 23.9218 21.1434 23.9544 21.2203 23.9544C21.2973 23.9544 21.3706 23.9218 21.4221 23.8647L24.4565 20.4996V22.8176ZM24.4565 19.6881L21.2203 23.2769L17.1324 18.7435V16.4257L21.0185 20.7352C21.07 20.7923 21.1434 20.8249 21.2203 20.8249C21.2973 20.8249 21.3706 20.7923 21.4221 20.7352L24.4565 17.3701V19.6881ZM24.4565 16.5587L21.2203 20.1474L17.1324 15.6141V13.2963L21.0185 17.606C21.07 17.663 21.1434 17.6956 21.2203 17.6956C21.2973 17.6956 21.3706 17.663 21.4221 17.606L24.4565 14.2407V16.5587ZM24.4565 13.4294L21.2203 17.0182L17.1324 12.4848V10.1667L21.0185 14.4763C21.07 14.5335 21.1434 14.5661 21.2203 14.5661C21.2973 14.5661 21.3706 14.5335 21.4221 14.4763L24.4565 11.1111V13.4294ZM24.4565 10.2999L21.2203 13.8886L17.1324 9.35526V7.03721L21.0185 11.3468C21.07 11.4039 21.1434 11.4366 21.2203 11.4366C21.2973 11.4366 21.3706 11.4039 21.4221 11.3468L24.4565 7.9816V10.2999ZM24.4565 7.17036L21.2203 10.7591L17.1324 6.22574V3.90781L21.0185 8.21737C21.07 8.27442 21.1434 8.30706 21.2203 8.30706C21.2973 8.30706 21.3706 8.27442 21.4221 8.21737L24.4565 4.85229V7.17036ZM24.4565 4.04083L21.2203 7.62957L17.1324 3.09621V0.778285L21.0185 5.08784C21.07 5.14503 21.1434 5.17767 21.2203 5.17767C21.2973 5.17767 21.3706 5.14503 21.4221 5.08784L24.4565 1.72268V4.04083ZM24.4565 0.911436L21.2203 4.50017L17.6524 0.543481H19.7427L21.0185 1.95831C21.07 2.0155 21.1434 2.04814 21.2203 2.04814C21.2973 2.04814 21.3706 2.0155 21.4221 1.95831L22.6979 0.543481H24.4565V0.911436Z" fill="#253D4E"/>
</svg>
