<svg width="36" height="24" viewBox="0 0 36 24" fill="none" xmlns="http://www.w3.org/2000/svg">
<path d="M2.62043 0C1.17307 0 0 1.17392 0 2.62043V20.5244C0 21.9709 1.17307 23.1448 2.62043 23.1448H33.3796C34.8269 23.1448 36 21.9709 36 20.5244V2.62043C36 1.17392 34.8269 0 33.3796 0H2.62043ZM2.62043 0.699695H33.3796C34.4503 0.699695 35.3003 1.55128 35.3003 2.62043V20.5244C35.3003 21.5935 34.4503 22.4451 33.3796 22.4451H2.62043C1.54971 22.4451 0.699695 21.5935 0.699695 20.5244V2.62043C0.699695 1.55128 1.54971 0.699695 2.62043 0.699695ZM5.07622 4.5C4.45259 4.5 3.90998 4.86028 3.53963 5.37805C3.16929 5.89582 2.9497 6.58486 2.9497 7.33994V17.2591C2.9497 18.0142 3.16929 18.7033 3.53963 19.2211C3.90998 19.7388 4.45259 20.0991 5.07622 20.0991H12.4985C13.1221 20.0991 13.6647 19.7388 14.0351 19.2211C14.4054 18.7033 14.625 18.0142 14.625 17.2591V7.33994C14.625 6.58486 14.4054 5.89582 14.0351 5.37805C13.6647 4.86028 13.1221 4.5 12.4985 4.5H5.07622ZM5.07622 5.19969H12.4985C12.8586 5.19969 13.201 5.39625 13.4726 5.77591C13.7441 6.15558 13.9253 6.71969 13.9253 7.33994V17.2591C13.9253 17.8794 13.7441 18.4435 13.4726 18.8232C13.219 19.1776 12.9008 19.3613 12.5671 19.3857C12.5672 19.3812 12.5672 19.3766 12.5671 19.3721L12.5396 15.119C12.53 14.0767 11.554 13.2943 10.4131 13.2943H7.1753C6.03441 13.2943 5.03911 14.0689 5.04878 15.119L5.07622 19.3721C5.07587 19.3812 5.07587 19.3902 5.07622 19.3993C4.71613 19.3993 4.38742 19.2028 4.11585 18.8231C3.84429 18.4434 3.66311 17.8793 3.66311 17.2591V7.33983C3.66311 6.71959 3.84429 6.15548 4.11585 5.77581C4.38742 5.39614 4.71613 5.19969 5.07622 5.19969ZM17.8491 5.54268C17.7614 5.55322 17.681 5.59639 17.6237 5.66356C17.5665 5.73073 17.5366 5.81698 17.5401 5.90518C17.5435 5.99338 17.58 6.07705 17.6424 6.13953C17.7047 6.20202 17.7883 6.23873 17.8765 6.24238H32.5427C32.5913 6.24674 32.6402 6.24093 32.6864 6.22534C32.7326 6.20974 32.7751 6.18469 32.8111 6.15178C32.8471 6.11887 32.8758 6.07881 32.8955 6.03417C32.9152 5.98954 32.9253 5.94131 32.9253 5.89253C32.9253 5.84375 32.9152 5.79552 32.8955 5.75089C32.8758 5.70625 32.8471 5.66619 32.8111 5.63328C32.7751 5.60037 32.7326 5.57532 32.6864 5.55972C32.6402 5.54413 32.5913 5.53832 32.5427 5.54268H17.8765C17.8674 5.54233 17.8582 5.54233 17.8491 5.54268ZM8.65701 7.71037C7.45034 7.71037 6.51677 8.81564 6.51677 10.125C6.51677 11.4343 7.45034 12.5534 8.65701 12.5534C9.86368 12.5534 10.7835 11.4343 10.7835 10.125C10.7835 8.81564 9.86368 7.71037 8.65701 7.71037ZM8.65701 8.41006C9.42246 8.41006 10.0838 9.14227 10.0838 10.125C10.0838 11.1077 9.42246 11.8537 8.65701 11.8537C7.89156 11.8537 7.21646 11.1077 7.21646 10.125C7.21646 9.14227 7.89156 8.41006 8.65701 8.41006ZM17.8491 9.54878C17.8022 9.55058 17.7562 9.56159 17.7136 9.58118C17.671 9.60077 17.6327 9.62856 17.6009 9.66296C17.569 9.69735 17.5443 9.73769 17.528 9.78166C17.5117 9.82563 17.5043 9.87236 17.5061 9.91921C17.5079 9.96605 17.5189 10.0121 17.5385 10.0547C17.5581 10.0972 17.5859 10.1356 17.6203 10.1674C17.6547 10.1993 17.695 10.224 17.739 10.2403C17.7829 10.2566 17.8297 10.264 17.8765 10.2622H28.2073C28.3019 10.2622 28.3927 10.2246 28.4595 10.1577C28.5264 10.0908 28.564 10.0001 28.564 9.90549C28.564 9.81088 28.5264 9.72015 28.4595 9.65326C28.3927 9.58636 28.3019 9.54878 28.2073 9.54878H17.8765C17.8674 9.54842 17.8582 9.54842 17.8491 9.54878ZM17.8765 13.5549C17.7819 13.5549 17.6912 13.5925 17.6243 13.6594C17.5574 13.7262 17.5198 13.817 17.5198 13.9116C17.5198 14.0062 17.5574 14.0969 17.6243 14.1638C17.6912 14.2307 17.7819 14.2683 17.8765 14.2683H30.2515C30.3461 14.2683 30.4369 14.2307 30.5038 14.1638C30.5707 14.0969 30.6082 14.0062 30.6082 13.9116C30.6082 13.817 30.5707 13.7262 30.5038 13.6594C30.4369 13.5925 30.3461 13.5549 30.2515 13.5549H17.8765ZM7.1753 13.9939H10.4131C11.2397 13.9939 11.8207 14.521 11.8262 15.1189L11.8674 19.372C11.867 19.381 11.867 19.3901 11.8674 19.3992H5.78963C5.78998 19.3901 5.78998 19.381 5.78963 19.372L5.74848 15.1189C5.74303 14.5287 6.34875 13.9939 7.1753 13.9939Z" fill="#EC1E24"/>
</svg>
