<svg width="30" height="30" viewBox="0 0 30 30" fill="none" xmlns="http://www.w3.org/2000/svg">
<path d="M28.6097 21.9379C27.4491 20.7773 25.8259 20.3577 24.3266 20.6718L21.2288 17.5739H25.1928V17.6266C25.1928 18.2266 25.6786 18.7161 26.2822 18.7161H28.7188C29.3237 18.7161 29.8132 18.2254 29.8132 17.6266V8.48033C29.8132 7.88037 29.3224 7.39085 28.7188 7.39085H26.2822C25.6774 7.39085 25.1928 7.8816 25.1928 8.48033V8.52818H19.43V4.62165H19.4779C20.0827 4.62165 20.5673 4.1309 20.5673 3.53217V1.08948C20.5673 0.489525 20.0815 0 19.4779 0H10.3366C9.73172 0 9.24219 0.49075 9.24219 1.08948V3.53095C9.24219 4.1309 9.73294 4.62043 10.3366 4.62043H10.3844V8.52695L4.62043 8.52818V8.48033C4.62043 7.88038 4.12968 7.39085 3.53095 7.39085H1.08948C0.489525 7.39085 0 7.8816 0 8.48033V17.6266C0 18.2266 0.49075 18.7161 1.08948 18.7161H3.53095C4.1309 18.7161 4.62043 18.2254 4.62043 17.6266V17.5739H9.17961C8.96981 17.288 8.78946 16.9838 8.63732 16.6648H4.61553V9.43718H10.8114C10.8212 9.43718 10.8261 9.44209 10.8347 9.44209H11.5819C11.5917 9.39915 11.6015 9.36602 11.615 9.32308C11.6628 9.17586 11.7291 9.03722 11.8051 8.9133C11.8101 8.9084 11.815 8.89858 11.8199 8.88999C11.8432 8.85196 11.8726 8.81884 11.8959 8.78571C11.9156 8.75749 11.9389 8.72805 11.9573 8.69983C11.9953 8.65198 12.0383 8.60904 12.0812 8.571C12.0959 8.55628 12.1045 8.54279 12.1192 8.52806H11.2862V4.62154H18.5151V8.52806H16.5692C16.5741 8.52806 16.5741 8.53297 16.579 8.53297C16.6024 8.54279 16.6269 8.55628 16.6502 8.5661C17.1361 8.7943 17.5924 9.08015 18.0022 9.43227H18.0071L18.012 9.43717H18.9739C18.9837 9.43717 18.9886 9.43227 18.9972 9.43227H25.1931V16.6611H20.3198L18.6586 14.9999C18.9727 13.5007 18.5543 11.8788 17.3925 10.7218C16.3128 9.6422 14.7706 9.15635 13.2715 9.42259C13.1046 9.45081 12.9672 9.56982 12.9193 9.73177C12.8666 9.89371 12.9095 10.0692 13.0334 10.1882L15.1743 12.3291L14.5842 14.5325L12.3856 15.1226L10.2399 12.9817C10.1208 12.8627 9.9454 12.8198 9.78346 12.8676C9.62152 12.9204 9.50251 13.0529 9.47429 13.2198C9.24118 14.5423 9.5933 15.8992 10.4214 16.941C10.0926 17.5078 8.82282 19.7444 8.82282 20.6521C8.82282 21.771 9.73193 22.6789 10.8496 22.6789C11.9685 22.6789 12.8764 21.7698 12.8764 20.6521C12.8764 20.1 12.4102 19.0584 11.9673 18.1972C12.6335 18.5345 13.361 18.7063 14.0947 18.7063C14.4186 18.7063 14.7461 18.6683 15.0651 18.602L20.7333 24.2702C20.4192 25.7695 20.8425 27.3914 22.0044 28.5533C22.8853 29.4379 24.0606 29.9238 25.317 29.9238C26.5635 29.9238 27.7437 29.4379 28.6296 28.5533C29.5436 27.6393 30 26.4407 30 25.2407C30 24.0421 29.5189 22.852 28.6097 21.9379ZM11.9538 20.6582C11.9538 21.2717 11.4544 21.7772 10.8348 21.7772C10.2214 21.7772 9.71594 21.2778 9.71594 20.6582C9.71594 20.2448 10.2864 19.0498 10.8348 18.0413C11.3882 19.0498 11.9538 20.2485 11.9538 20.6582ZM15.5902 17.4892C15.5669 17.499 15.5423 17.5125 15.519 17.5223C15.3816 17.58 15.2381 17.6266 15.0957 17.6646C13.8247 18.0167 12.4064 17.6978 11.4078 16.7028C10.7698 16.0648 10.3895 15.2281 10.3134 14.3472L11.917 15.9507C12.0311 16.0648 12.1979 16.1126 12.3549 16.0697L15.0627 15.3458C15.2197 15.3029 15.3436 15.1839 15.3865 15.0269L16.1104 12.3191C16.1533 12.1621 16.1055 11.9953 15.9914 11.8812L14.3879 10.2776C15.2688 10.3488 16.1055 10.7291 16.7435 11.372C17.7434 12.3719 18.0611 13.7938 17.7053 15.065C17.6673 15.2073 17.6194 15.3459 17.563 15.4833C17.5532 15.5066 17.5434 15.5263 17.5348 15.5447C17.482 15.6588 17.4305 15.7729 17.3679 15.882C17.3483 15.9201 17.325 15.9581 17.3017 15.9912C17.244 16.0869 17.1827 16.1765 17.1164 16.2673C17.0931 16.3004 17.0686 16.3335 17.0453 16.3667C16.9545 16.4857 16.8551 16.5998 16.7508 16.704C16.6465 16.8083 16.5324 16.9089 16.4134 16.9985C16.3803 17.0267 16.3472 17.0463 16.3141 17.0746C16.2233 17.1408 16.1337 17.1985 16.0429 17.2549C16.0049 17.2782 15.9668 17.3028 15.9288 17.3212C15.8135 17.3837 15.7043 17.4413 15.5902 17.4892ZM22.4189 21.5575C22.3858 21.5808 22.3526 21.6053 22.3195 21.6335C22.2054 21.7292 22.0913 21.8286 21.9858 21.9329L21.9809 21.9378C21.9711 21.9476 21.9662 21.9525 21.9613 21.9611C21.8619 22.0605 21.7711 22.1611 21.6803 22.2703C21.6423 22.3181 21.6042 22.3697 21.5662 22.4175C21.5135 22.4838 21.4619 22.5549 21.4141 22.6224C21.3761 22.68 21.338 22.7414 21.3049 22.7991C21.2619 22.8653 21.2239 22.9328 21.1859 23.0039C21.1528 23.0653 21.1245 23.123 21.0902 23.1843C21.0706 23.2272 21.0472 23.2653 21.0288 23.3082L16.0183 18.2977C16.0613 18.2781 16.1042 18.2548 16.1472 18.2314C16.2048 18.2032 16.2612 18.1738 16.3238 18.1407C16.395 18.1026 16.4661 18.0597 16.5385 18.0167C16.5962 17.9836 16.6477 17.9505 16.7054 17.9125C16.7814 17.8597 16.8526 17.8033 16.9287 17.7505C16.9716 17.7174 17.0195 17.6843 17.0624 17.6511C17.1765 17.5554 17.2906 17.4561 17.3961 17.3518C17.5004 17.2475 17.601 17.1334 17.6955 17.0181C17.7335 16.9702 17.7666 16.9224 17.7997 16.8807C17.8525 16.8095 17.9089 16.7383 17.9568 16.666C17.9948 16.6083 18.0279 16.5519 18.066 16.4942C18.1089 16.4279 18.1519 16.3568 18.1899 16.2893C18.223 16.228 18.2512 16.1703 18.2807 16.109C18.3003 16.066 18.3236 16.028 18.342 15.985L23.3525 20.9956C23.2949 21.0189 23.2433 21.0532 23.1906 21.0765C23.1477 21.0962 23.1096 21.1195 23.0667 21.1379C22.9759 21.1857 22.89 21.2372 22.8004 21.2949C22.7575 21.3182 22.7195 21.3428 22.6765 21.371C22.5943 21.425 22.5048 21.4863 22.4189 21.5575ZM27.1018 27.0488C26.6025 27.5482 25.9547 27.796 25.2983 27.796C24.642 27.796 23.9892 27.5482 23.4948 27.0488C23.009 26.5679 22.7476 25.9262 22.7476 25.2453C22.7476 24.5644 23.009 23.9228 23.4948 23.4418C24.4947 22.4468 26.1117 22.4468 27.1067 23.4418C27.5876 23.9227 27.8539 24.5644 27.8539 25.2453C27.8478 25.9311 27.5815 26.5679 27.1018 27.0488Z" fill="#253D4E"/>
</svg>
