<svg width="13" height="13" viewBox="0 0 13 13" fill="none" xmlns="http://www.w3.org/2000/svg">
<path d="M5.54531 1.08203L6.17422 0.480469C6.30182 0.352865 6.45677 0.289062 6.63906 0.289062C6.82135 0.289062 6.9763 0.352865 7.10391 0.480469L12.4086 5.78516C12.5362 5.91276 12.6 6.06771 12.6 6.25C12.6 6.43229 12.5362 6.58724 12.4086 6.71484L7.10391 12.0195C6.9763 12.1471 6.82135 12.2109 6.63906 12.2109C6.45677 12.2109 6.30182 12.1471 6.17422 12.0195L5.54531 11.418C5.41771 11.2904 5.35391 11.1354 5.35391 10.9531C5.37214 10.7708 5.44505 10.6159 5.57266 10.4883L8.85391 7.34375H1.00625C0.823958 7.34375 0.66901 7.27995 0.541406 7.15234C0.413802 7.02474 0.35 6.86979 0.35 6.6875V5.8125C0.35 5.63021 0.413802 5.47526 0.541406 5.34766C0.66901 5.22005 0.823958 5.15625 1.00625 5.15625H8.85391L5.57266 2.01172C5.44505 1.88411 5.37214 1.72917 5.35391 1.54688C5.35391 1.36458 5.41771 1.20964 5.54531 1.08203Z" fill="white"/>
</svg>
