<svg width="30" height="26" viewBox="0 0 30 26" fill="none" xmlns="http://www.w3.org/2000/svg">
<path d="M29.9354 12.7133C29.8054 11.9499 29.4813 11.0845 28.9976 10.1747C28.5139 9.26484 27.8689 8.31552 27.094 7.38431C27.094 7.38431 27.094 7.37937 27.0891 7.37937L27.0842 7.37443V7.3695C26.8933 7.14409 26.6959 6.92034 26.5001 6.70646C26.2747 6.46461 26.0509 6.22277 25.8206 5.99406C25.5672 5.74069 25.3089 5.4939 25.0506 5.25205C24.8548 5.06613 24.6525 4.8868 24.455 4.71899C24.455 4.71899 24.4501 4.71406 24.4435 4.71406C22.5959 3.1527 20.6643 2.10301 19.1424 1.82823C19.1309 1.82823 19.126 1.82329 19.1144 1.82329C18.0977 1.64396 17.2948 1.81836 16.7781 2.32838C16.0147 3.08686 15.9983 4.46723 16.7222 6.21947C17.1039 7.14575 17.6765 8.12303 18.3905 9.10032C18.3395 9.13981 18.2951 9.1793 18.2507 9.22372L15.4882 11.9582L11.8604 7.66245C11.8275 7.62296 11.793 7.59005 11.76 7.5555C12.6469 6.57822 13.3724 5.57296 13.8775 4.60717C14.7528 2.92241 14.8548 1.54698 14.1638 0.725992C13.6916 0.169895 12.9002 -0.0719531 11.867 0.0185185C10.3287 0.158366 8.31156 1.03531 6.33551 2.42722C6.33551 2.42722 6.33057 2.42722 6.33057 2.43216C6.33057 2.43216 6.32563 2.43709 6.31905 2.43709L6.31412 2.44203C6.07884 2.60985 5.84192 2.79083 5.60664 2.97509C5.34834 3.17746 5.09001 3.38476 4.83667 3.59866C4.56685 3.829 4.29704 4.06428 4.0338 4.30613C3.83143 4.49205 3.64058 4.67632 3.45466 4.8573C3.44973 4.86224 3.44315 4.86882 3.43821 4.87375V4.87869C1.73698 6.60296 0.534321 8.44398 0.141098 9.93803C-0.122145 10.9433 -0.0168474 11.7626 0.455344 12.3187C0.865018 12.8024 1.50503 13.0427 2.33094 13.0427C2.91008 13.0427 3.58301 12.9242 4.32995 12.684C5.28419 12.3747 6.30591 11.886 7.33421 11.2526C7.36711 11.3036 7.4066 11.353 7.44608 11.404L11.3717 16.0535L6.69439 20.6866C6.47557 20.9005 6.31762 21.1703 6.2403 21.4665L5.61673 23.7583C5.44891 24.3753 5.62167 25.0104 6.07082 25.4546C6.40152 25.7853 6.83422 25.9597 7.28338 25.9597C7.44626 25.9597 7.60914 25.9367 7.77204 25.8922L10.008 25.2522C10.2893 25.1733 10.5476 25.0219 10.75 24.8146L15.1131 20.4906L17.943 23.8437C18.0433 23.9621 18.1568 24.0625 18.2802 24.1464C18.4036 24.2303 18.5385 24.3044 18.685 24.3537L18.8084 24.3981C18.8528 24.431 18.9087 24.4607 18.9713 24.4607H18.9828L20.9143 25.1566C21.1101 25.229 21.3125 25.2635 21.5099 25.2635C21.9196 25.2635 22.3194 25.1171 22.6386 24.8374C23.1223 24.4212 23.3345 23.7993 23.2062 23.1757L22.7406 20.902C22.6846 20.6157 22.5547 20.3459 22.3638 20.127L19.6228 16.8809C19.5998 16.8414 19.5718 16.8085 19.5389 16.7806L19.2181 16.4038L22.3062 13.3436C22.3391 13.3107 22.3737 13.2712 22.4066 13.2367C23.4513 14.0461 24.5125 14.6861 25.5129 15.1123C26.3783 15.4775 27.1532 15.6634 27.8096 15.6634C28.4776 15.6634 29.0222 15.4726 29.4039 15.0909C29.9304 14.5446 30.1098 13.735 29.9354 12.7133ZM21.9164 20.446L21.9329 20.4624C22.0562 20.6138 22.1467 20.7931 22.1862 20.979L22.6518 23.2528C22.7358 23.6691 22.5959 24.0837 22.2701 24.365C22.1023 24.5114 21.9 24.6003 21.691 24.6348L21.9164 20.446ZM8.47288 11.7029L7.88389 11.0004C7.86086 10.9724 7.83947 10.9444 7.81643 10.9099C8.05829 10.747 8.3051 10.5792 8.54694 10.4048L8.47288 11.7029ZM8.02372 7.34947C6.44591 8.68545 4.80066 9.74171 3.3957 10.3307C2.1272 10.8638 1.17131 10.9477 0.845521 10.561C0.74516 10.4376 0.694154 10.2583 0.705674 10.0329C1.08244 8.63443 2.22756 6.89374 3.85638 5.24861C3.97484 5.13673 4.09165 5.01827 4.21505 4.90639L5.72539 6.57469C5.95573 6.82806 6.26502 6.97942 6.60728 7.0008C6.63525 7.0008 6.66321 7.00574 6.69776 7.00574C7.00708 7.00574 7.2983 6.8988 7.54014 6.69643C7.55166 6.68491 7.56318 6.67997 7.57305 6.66846C7.83136 6.43318 7.98272 6.11236 7.99917 5.76357C8.01562 5.41478 7.89881 5.08407 7.66189 4.82575L6.20748 3.21996C6.35391 3.10809 6.50527 2.99456 6.65171 2.8942H6.65664H6.66158C8.55364 1.56315 10.4572 0.725742 11.8953 0.585865C12.1256 0.613835 12.2934 0.686226 12.3954 0.811269C12.7212 1.19956 12.4793 2.12585 11.7439 3.2874C10.9213 4.57073 9.60154 6.01354 8.02372 7.34947ZM11.2402 14.9886C11.2517 14.9606 11.2567 14.9376 11.2567 14.9096L11.6219 8.26114L13.8003 10.8442C13.7888 10.8722 13.7838 10.8952 13.7838 10.9232L13.6259 13.781L11.7733 15.6172L11.2402 14.9886ZM18.7163 23.7152C18.5864 23.6478 18.4745 23.5524 18.379 23.4405L16.6219 21.3576C16.6334 21.3296 16.6383 21.3066 16.6383 21.2786L16.7733 18.814L18.8167 16.787L19.0799 17.0963L18.7163 23.7152ZM21.9114 12.9041L18.8562 15.9314L18.4465 16.3411L16.8177 17.9535L16.2056 18.5606L15.1445 19.6168L14.7348 20.0265L10.3371 24.385C10.1973 24.5199 10.0278 24.6203 9.83698 24.6762L7.60105 25.3162C7.19138 25.4347 6.7636 25.3277 6.46089 25.025C6.15816 24.7272 6.04464 24.301 6.15816 23.8914L6.78173 21.5995C6.83767 21.4037 6.93968 21.2228 7.08446 21.078L11.7289 16.4727L12.1386 16.0679L13.57 14.6464L14.182 14.0393L15.4341 12.7988L15.8437 12.3891L18.6407 9.62012C18.6687 9.59215 18.6966 9.56912 18.7246 9.54772C19.2133 10.1762 19.7627 10.7948 20.3583 11.3954C20.875 11.9169 21.4146 12.4055 21.9592 12.8547C21.951 12.8646 21.9279 12.8827 21.9114 12.9041ZM29.1786 13.2973C28.82 13.656 27.8756 13.4882 26.6564 12.8433C25.309 12.1358 23.764 10.9331 22.3047 9.46224C20.8503 7.99629 19.6591 6.44151 18.9631 5.08271C18.3346 3.85865 18.1718 2.91425 18.5305 2.55557C18.6423 2.44369 18.8167 2.38117 19.0471 2.37623C20.4686 2.63948 22.2932 3.6398 24.0618 5.13372L24.0667 5.13866C24.2576 5.30648 24.4599 5.48088 24.6557 5.66679C24.9091 5.90206 25.1608 6.14391 25.4076 6.39073C25.633 6.61613 25.8568 6.85143 26.0756 7.08666C26.2714 7.30055 26.4639 7.51935 26.6481 7.7382C28.1256 9.5184 29.1128 11.3496 29.3661 12.7693C29.3513 13.0112 29.2905 13.1855 29.1786 13.2973Z" fill="#253D4E"/>
</svg>
